<?xml version="1.0" encoding="UTF-8"?>
<!DOCTYPE svg PUBLIC "-//W3C//DTD SVG 1.1//EN" "http://www.w3.org/Graphics/SVG/1.1/DTD/svg11.dtd">
<!-- Creator: CorelDRAW 2020 (64-Bit) -->
<svg xmlns="http://www.w3.org/2000/svg" xml:space="preserve" width="90.3946mm" height="51.7434mm" version="1.1" style="shape-rendering:geometricPrecision; text-rendering:geometricPrecision; image-rendering:optimizeQuality; fill-rule:evenodd; clip-rule:evenodd"
viewBox="0 0 9039.46 5174.34"
 xmlns:xlink="http://www.w3.org/1999/xlink"
 xmlns:xodm="http://www.corel.com/coreldraw/odm/2003">
 <defs>
  <style type="text/css">
   <![CDATA[
    .fil1 {fill:#727271}
    .fil0 {fill:#E31E24}
    .fil3 {fill:#727271;fill-rule:nonzero}
    .fil2 {fill:#E31E24;fill-rule:nonzero}
   ]]>
  </style>
 </defs>
 <g id="Layer_x0020_1">
  <metadata id="CorelCorpID_0Corel-Layer"/>
  <path class="fil0" d="M3601.24 0c-3652.91,1177.27 2219.99,3840.63 -695.06,5174.33 3627.9,-1183.24 -2264.95,-3845.58 695.06,-5174.33z"/>
  <path class="fil1" d="M4554.9 604.03c79.18,12.38 133.34,86.6 120.96,165.78 -12.37,79.18 -86.59,133.33 -165.77,120.96 -73.11,-11.43 -124.88,-75.59 -122.65,-147.68l-1356.03 -211.94c-9.78,-1.53 -16.66,-10.86 -15.12,-20.72l0 0c1.54,-9.86 10.86,-16.66 20.72,-15.12l1356.03 211.94c19.87,-69.35 88.76,-114.64 161.86,-103.22z"/>
  <path class="fil1" d="M4639.56 1067.05c84.12,13.15 141.66,92.01 128.52,176.14 -13.15,84.12 -92.01,141.66 -176.14,128.51 -77.67,-12.14 -132.68,-80.3 -130.31,-156.91l-1459.98 -228.18c-10.39,-1.63 -17.7,-11.54 -16.06,-22.02l0 0c1.64,-10.47 11.54,-17.7 22.01,-16.06l1459.98 228.19c21.12,-73.68 94.3,-121.81 171.98,-109.67z"/>
  <path class="fil1" d="M4521.76 1543.63c89.45,13.98 150.63,97.83 136.65,187.28 -13.98,89.45 -97.83,150.63 -187.28,136.65 -82.59,-12.91 -141.08,-85.39 -138.55,-166.84l-1169.44 -182.78c-11.07,-1.73 -18.82,-12.27 -17.08,-23.41l0 0c1.74,-11.13 12.27,-18.82 23.4,-17.07l1169.44 182.77c22.45,-78.34 100.27,-129.51 182.86,-116.6z"/>
  <path class="fil1" d="M4253.88 1924.01c103.36,16.15 174.05,113.03 157.9,216.39 -16.16,103.35 -113.04,174.05 -216.4,157.89 -95.43,-14.91 -163.01,-98.66 -160.09,-192.77l-654.01 -102.22c-12.83,-2 -21.74,-14.18 -19.73,-27.04l0 0c2.01,-12.87 14.17,-21.75 27.04,-19.74l654.01 102.22c25.94,-90.52 115.85,-149.65 211.28,-134.73z"/>
  <path class="fil1" d="M3880.2 2274.88c117.5,18.36 197.87,128.5 179.51,246 -18.37,117.5 -128.51,197.87 -246.01,179.51 -108.49,-16.96 -185.32,-112.17 -182.01,-219.16l-140.79 -22.01c-14.62,-2.28 -24.72,-16.11 -22.43,-30.74l0 0c2.28,-14.63 16.12,-24.73 30.74,-22.44l140.79 22c29.49,-102.9 131.71,-170.12 240.2,-153.16z"/>
  <path class="fil1" d="M2011.35 4644.32c-79.17,-12.37 -133.33,-86.59 -120.96,-165.77 12.38,-79.18 86.6,-133.34 165.78,-120.96 73.11,11.43 124.88,75.58 122.65,147.68l1244.48 194.5c9.76,1.53 16.65,10.87 15.11,20.72l0 0c-1.54,9.86 -10.86,16.66 -20.72,15.12l-1244.47 -194.5c-19.88,69.34 -88.76,114.64 -161.87,103.21z"/>
  <path class="fil1" d="M1926.7 4181.3c-84.13,-13.14 -141.67,-92 -128.52,-176.13 13.15,-84.12 92.01,-141.66 176.13,-128.52 77.68,12.14 132.69,80.31 130.31,156.91l1385.61 216.56c10.38,1.63 17.7,11.54 16.06,22.02l0 0c-1.63,10.47 -11.54,17.7 -22.01,16.06l-1385.61 -216.56c-21.11,73.68 -94.29,121.8 -171.97,109.66z"/>
  <path class="fil1" d="M2044.5 3704.73c-89.45,-13.98 -150.63,-97.83 -136.65,-187.28 13.98,-89.45 97.83,-150.63 187.28,-136.65 82.59,12.91 141.08,85.39 138.55,166.84l1169.44 182.77c11.07,1.73 18.82,12.27 17.08,23.41l0 0c-1.74,11.14 -12.27,18.82 -23.41,17.08l-1169.44 -182.77c-22.44,78.33 -100.26,129.51 -182.85,116.6z"/>
  <path class="fil1" d="M2312.38 3324.35c-103.36,-16.15 -174.05,-113.04 -157.9,-216.39 16.16,-103.36 113.04,-174.05 216.39,-157.9 95.44,14.92 163.02,98.66 160.1,192.78l654.01 102.21c12.83,2.01 21.74,14.18 19.73,27.05l0 0c-2.01,12.87 -14.18,21.75 -27.04,19.74l-654.01 -102.22c-25.94,90.51 -115.85,149.64 -211.28,134.73z"/>
  <path class="fil1" d="M2686.05 2973.48c-117.5,-18.36 -197.86,-128.51 -179.5,-246.01 18.36,-117.5 128.51,-197.86 246.01,-179.5 108.49,16.96 185.32,112.16 182.01,219.16l140.79 22c14.62,2.29 24.72,16.12 22.43,30.75l0 0c-2.29,14.63 -16.12,24.72 -30.74,22.44l-140.8 -22.01c-29.48,102.91 -131.7,170.13 -240.2,153.17z"/>
  <path class="fil2" d="M8482.06 4218.56l318.43 0 -155.51 -2495.64 -411.01 0 -444.32 1207.08c-111.09,314.74 -199.94,588.75 -266.6,840.53l-7.39 0c-66.65,-259.19 -148.11,-533.2 -251.8,-840.53l-425.8 -1207.08 -411.01 0 -174.04 2495.64 307.35 0 66.62 -1070.09c22.23,-377.67 40.74,-792.38 48.15,-1103.42l7.4 0c70.37,296.23 166.62,614.67 285.12,970.11l407.29 1188.59 244.39 0 440.63 -1210.79c125.89,-344.36 225.86,-659.1 314.71,-947.91l7.42 0c0,307.32 22.23,729.45 40.73,1077.5l59.24 1096.01z"/>
  <path class="fil2" d="M4200.42 1722.92l0 1469.98c0,777.57 385.09,1066.39 896.07,1066.39 540.6,0 944.19,-311.02 944.19,-1077.5l0 -1458.87 -325.85 0 0 1481.09c0,547.99 -240.67,792.38 -607.25,792.38 -333.25,0 -581.31,-236.97 -581.31,-792.38l0 -1481.09 -325.85 0z"/>
  <polygon class="fil2" points="-0,1722.92 -0,4218.56 325.85,4218.56 325.85,1722.92 "/>
  <path class="fil2" d="M880.48 4218.56l322.16 0 0 -999.74c74.05,18.51 162.9,22.23 259.17,22.23 314.74,0 588.75,-92.58 762.77,-274.01 125.89,-129.61 192.54,-307.32 192.54,-533.21 0,-222.16 -85.16,-403.59 -218.47,-522.07 -148.09,-133.3 -381.37,-207.35 -699.8,-207.35 -259.2,0 -462.83,22.2 -618.37,48.12l0 2466.03zm322.16 -2232.75c55.54,-14.81 162.9,-25.92 303.6,-25.92 351.78,0 588.75,159.23 588.75,492.47 0,336.94 -236.97,529.49 -625.76,529.49 -107.39,0 -196.24,-7.42 -266.59,-25.92l0 -970.12z"/>
  <path class="fil3" d="M8847.92 5024.37l0 -242.46 191.54 -339.09 -147.54 0 -58.66 139.77c-17.26,41.41 -31.07,75.07 -44,111.31l-1.73 0c-13.81,-37.96 -26.77,-69.03 -44.87,-111.31l-58.69 -139.77 -150.99 0 183.78 343.41 0 238.14 131.16 0z"/>
  <path class="fil3" d="M8462.23 4692.18l-216.6 0 0 102.66 89.76 0 0 121.82c-10.36,4.32 -34.51,7.62 -63.86,7.62 -107.86,0 -183.8,-69.45 -183.8,-189.82 0,-127.42 83.71,-188.98 193.29,-188.98 63.86,0 102.67,10.37 134.61,25.18l27.59 -107.14c-28.47,-12.09 -86.28,-26.75 -161.35,-26.75 -190.67,0 -331.32,110.44 -332.19,304.58 0,85.13 29.34,160.65 81.98,211.4 53.5,50.92 130.29,77.67 236.43,77.67 76.79,0 153.58,-18.98 194.14,-32.79l0 -305.45z"/>
  <path class="fil3" d="M7594.18 4536.87c90.6,0 139.8,89.73 139.8,194.99 0,113.03 -50.92,197.59 -139.8,197.59 -88.01,0 -141.5,-80.24 -141.5,-194.99 0,-113.03 51.77,-197.59 141.5,-197.59zm2.6 -104.42c-170.85,0 -283.03,130.29 -283.03,304.6 0,166.53 101.82,296.81 273.54,296.81 170.84,0 285.59,-114.75 285.59,-306.32 0,-161.35 -97.49,-295.09 -276.1,-295.09z"/>
  <polygon class="fil3" points="6915.98,5024.37 7278.37,5024.37 7278.37,4913.92 7047.14,4913.92 7047.14,4442.82 6915.98,4442.82 "/>
  <path class="fil3" d="M6532.86 4536.87c90.6,0 139.8,89.73 139.8,194.99 0,113.03 -50.92,197.59 -139.8,197.59 -88.01,0 -141.5,-80.24 -141.5,-194.99 0,-113.03 51.77,-197.59 141.5,-197.59zm2.6 -104.42c-170.85,0 -283.03,130.29 -283.03,304.6 0,166.53 101.82,296.81 273.54,296.81 170.84,0 285.59,-114.75 285.59,-306.32 0,-161.35 -97.49,-295.09 -276.1,-295.09z"/>
  <polygon class="fil3" points="5668.28,4442.82 5668.28,5024.37 5799.44,5024.37 5799.44,4781.06 6016.01,4781.06 6016.01,5024.37 6147.17,5024.37 6147.17,4442.82 6016.01,4442.82 6016.01,4666.28 5799.44,4666.28 5799.44,4442.82 "/>
  <polygon class="fil3" points="5290.36,5024.37 5421.49,5024.37 5421.49,4553.25 5580.27,4553.25 5580.27,4442.82 5133.3,4442.82 5133.3,4553.25 5290.36,4553.25 "/>
  <path class="fil3" d="M4820.08 4776.74l34.52 -123.4c9.49,-33.64 18.13,-77.66 26.74,-112.18l1.73 0c8.64,34.52 18.98,77.67 29.34,112.18l36.24 123.4 -128.57 0zm147.55 98.37l44.87 149.26 142.38 0 -181.21 -581.55 -172.56 0 -176.89 581.55 135.45 0 41.44 -149.26 166.52 0z"/>
  <path class="fil3" d="M4329.13 4542.91c9.49,-2.6 27.6,-4.32 53.5,-4.32 66.43,0 103.54,31.92 103.54,85.41 0,58.69 -43.16,94.05 -113.03,94.05 -19.86,0 -32.79,-0.85 -44.01,-3.45l0 -171.69zm-130.31 481.46l130.31 0 0 -208.8c12.07,2.57 27.6,3.45 44.86,3.45 77.66,0 144.09,-19.86 188.97,-61.26 35.36,-31.94 53.49,-81.12 53.49,-138.06 0,-56.96 -24.15,-105.28 -62.13,-134.6 -38.81,-31.07 -96.62,-46.6 -177.74,-46.6 -80.24,0 -137.2,5.17 -177.76,12.08l0 573.79z"/>
 </g>
</svg>
